<svg width="20" height="16" viewBox="0 0 20 16" fill="none" xmlns="http://www.w3.org/2000/svg">
<path d="M9.90812 9.83323C10.5894 9.83323 11.2429 9.60277 11.7246 9.19253C12.2064 8.78229 12.477 8.22589 12.477 7.64573C12.477 7.58167 12.4736 7.51819 12.4672 7.4555L9.68472 9.82484C9.75834 9.83031 9.83266 9.83323 9.90812 9.83323ZM18.4113 0.879322L17.4314 0.0457283C17.397 0.0164478 17.3503 0 17.3017 0C17.253 0 17.2064 0.0164478 17.172 0.0457283L14.6645 2.18147C13.2813 1.57952 11.7264 1.27854 9.99987 1.27854C5.59141 1.27854 2.30227 3.23362 0.132449 7.14378C0.0452329 7.30104 0 7.4728 0 7.64671C0 7.82062 0.0452329 7.99238 0.132449 8.14964C0.999461 9.70472 2.04347 10.9511 3.26447 11.8889L0.837986 13.9543C0.8036 13.9836 0.784284 14.0234 0.784284 14.0648C0.784284 14.1062 0.8036 14.1459 0.837986 14.1752L1.81716 15.009C1.85157 15.0383 1.89822 15.0547 1.94687 15.0547C1.99551 15.0547 2.04217 15.0383 2.07657 15.009L18.4113 1.10042C18.4283 1.08591 18.4419 1.06867 18.4511 1.0497C18.4603 1.03074 18.4651 1.0104 18.4651 0.98987C18.4651 0.969336 18.4603 0.949004 18.4511 0.930035C18.4419 0.911067 18.4283 0.893834 18.4113 0.879322ZM5.87124 7.64573C5.87118 7.05199 6.05172 6.46836 6.39527 5.9517C6.73883 5.43503 7.23369 5.00295 7.83164 4.69755C8.42959 4.39214 9.11024 4.22382 9.80729 4.20899C10.5043 4.19416 11.194 4.33332 11.8091 4.61292L10.6939 5.56253C10.2442 5.4399 9.76347 5.42513 9.30452 5.51984C8.84556 5.61455 8.42611 5.81508 8.09219 6.09942C7.75827 6.38377 7.52278 6.74094 7.41155 7.13175C7.30033 7.52256 7.31767 7.93191 7.46168 8.31487L6.34649 9.26448C6.03354 8.76659 5.87027 8.21045 5.87124 7.64573Z" fill="#AAAAAA"/>
<path d="M19.8676 7.14184C19.0602 5.69393 18.0993 4.51326 16.9847 3.59985L13.6786 6.41528C13.9573 7.03562 14.019 7.71141 13.8564 8.361C13.6938 9.01059 13.3138 9.60618 12.7623 10.0758C12.2107 10.5455 11.5113 10.8691 10.7484 11.0075C9.98556 11.146 9.19194 11.0934 8.46343 10.8561L5.65918 13.244C6.96016 13.7566 8.40716 14.0129 10.0002 14.0129C14.4087 14.0129 17.6978 12.0579 19.8676 8.1477C19.9549 7.99045 20.0001 7.81869 20.0001 7.64477C20.0001 7.47086 19.9549 7.2991 19.8676 7.14184Z" fill="#AAAAAA"/>
</svg>
