<svg width="20" height="20" viewBox="0 0 20 20" fill="none" xmlns="http://www.w3.org/2000/svg">
<path d="M17.0149 16.1116C18.0023 14.9258 18.689 13.52 19.0169 12.0132C19.3449 10.5064 19.3045 8.94298 18.8992 7.45508C18.4938 5.96719 17.7354 4.59864 16.6881 3.4652C15.6409 2.33177 14.3355 1.46679 12.8826 0.943454C11.4296 0.420114 9.87171 0.253803 8.34073 0.458591C6.80974 0.663378 5.35069 1.23324 4.08699 2.11997C2.8233 3.00669 1.79214 4.1842 1.08075 5.55288C0.369351 6.92155 -0.00134928 8.44113 3.69026e-06 9.98307C0.000522872 12.2246 0.791828 14.3944 2.23507 16.1116L2.22132 16.1233C2.26944 16.1809 2.32444 16.2303 2.37394 16.2873C2.43582 16.358 2.5025 16.4245 2.56644 16.4932C2.75894 16.7018 2.95694 16.9022 3.16457 17.0902C3.22782 17.1479 3.29313 17.2014 3.35707 17.2563C3.57707 17.4457 3.80325 17.6255 4.03769 17.793C4.06794 17.8136 4.09544 17.8403 4.12569 17.8616V17.8534C5.73589 18.9845 7.65676 19.5916 9.62569 19.5916C11.5946 19.5916 13.5155 18.9845 15.1257 17.8534V17.8616C15.1559 17.8403 15.1828 17.8136 15.2137 17.793C15.4474 17.6249 15.6743 17.4457 15.8943 17.2563C15.9583 17.2014 16.0236 17.1472 16.0868 17.0902C16.2944 16.9015 16.4924 16.7018 16.6849 16.4932C16.7489 16.4245 16.8149 16.358 16.8774 16.2873C16.9263 16.2303 16.9819 16.1809 17.0301 16.1226L17.0149 16.1116ZM9.625 4.49279C10.2369 4.49279 10.835 4.67392 11.3438 5.01326C11.8526 5.35261 12.2491 5.83493 12.4833 6.39924C12.7174 6.96355 12.7787 7.5845 12.6593 8.18357C12.5399 8.78264 12.2453 9.33291 11.8126 9.76482C11.3799 10.1967 10.8287 10.4909 10.2286 10.61C9.62844 10.7292 9.00639 10.668 8.44108 10.4343C7.87577 10.2005 7.39259 9.8047 7.05265 9.29683C6.7127 8.78897 6.53125 8.19188 6.53125 7.58107C6.53125 6.76201 6.8572 5.97649 7.43739 5.39733C8.01758 4.81816 8.80449 4.49279 9.625 4.49279ZM4.12982 16.1116C4.14174 15.2105 4.50859 14.3503 5.151 13.7171C5.79341 13.0839 6.65972 12.7287 7.5625 12.7282H11.6875C12.5903 12.7287 13.4566 13.0839 14.099 13.7171C14.7414 14.3503 15.1083 15.2105 15.1202 16.1116C13.6124 17.4679 11.6547 18.2185 9.625 18.2185C7.59533 18.2185 5.63761 17.4679 4.12982 16.1116Z" fill="white"/>
</svg>
