<svg width="16" height="11" viewBox="0 0 16 11" fill="none" xmlns="http://www.w3.org/2000/svg">
<path d="M11.2499 4.37301H15.1819C15.2294 4.37302 15.2759 4.38488 15.316 4.40719C15.3561 4.4295 15.3881 4.46134 15.4082 4.49899C15.4284 4.53663 15.4358 4.57851 15.4298 4.61974C15.4237 4.66096 15.4043 4.69982 15.3739 4.73176L13.4079 6.79676C13.3844 6.82138 13.3551 6.84118 13.3219 6.85477C13.2887 6.86836 13.2525 6.87541 13.2159 6.87541C13.1793 6.87541 13.1431 6.86836 13.1099 6.85477C13.0767 6.84118 13.0474 6.82138 13.0239 6.79676L11.0579 4.73176C11.0275 4.69982 11.0081 4.66096 11.0021 4.61974C10.996 4.57851 11.0034 4.53663 11.0236 4.49899C11.0437 4.46134 11.0757 4.4295 11.1158 4.40719C11.1559 4.38488 11.2024 4.37302 11.2499 4.37301ZM0.249906 6.12301H4.18191C4.22941 6.12299 4.27593 6.11113 4.31601 6.08882C4.35609 6.06651 4.38807 6.03467 4.40822 5.99703C4.42836 5.95939 4.43584 5.9175 4.42976 5.87628C4.42368 5.83505 4.40431 5.7962 4.37391 5.76426L2.40791 3.69926C2.38444 3.67464 2.35508 3.65483 2.32191 3.64124C2.28873 3.62765 2.25254 3.62061 2.21591 3.62061C2.17927 3.62061 2.14309 3.62765 2.10991 3.64124C2.07673 3.65483 2.04737 3.67464 2.02391 3.69926L0.0579064 5.76426C0.0275042 5.7962 0.00813044 5.83505 0.00205393 5.87628C-0.00402258 5.9175 0.00344963 5.95939 0.0235956 5.99703C0.0437416 6.03467 0.0757274 6.06651 0.115808 6.08882C0.155888 6.11113 0.202403 6.12299 0.249906 6.12301Z" fill="#656FAB"/>
<path fill-rule="evenodd" clip-rule="evenodd" d="M7.71583 0.873067C6.16383 0.873067 4.77583 1.49169 3.85883 2.46382C3.81788 2.51026 3.76668 2.54902 3.70827 2.57779C3.64986 2.60657 3.58543 2.62478 3.51882 2.63133C3.4522 2.63788 3.38477 2.63265 3.32051 2.61594C3.25625 2.59923 3.1965 2.57139 3.14479 2.53406C3.09308 2.49674 3.05047 2.4507 3.0195 2.39868C2.98854 2.34666 2.96984 2.28972 2.96453 2.23125C2.95921 2.17278 2.96739 2.11397 2.98857 2.05833C3.00976 2.00268 3.04351 1.95132 3.08783 1.90732C3.82002 1.13165 4.79142 0.556327 5.88649 0.249766C6.98157 -0.0567949 8.15423 -0.0816887 9.265 0.178045C10.3758 0.437779 11.3779 0.971211 12.1522 1.71489C12.9266 2.45858 13.4405 3.38121 13.6328 4.37307H12.6158C12.3849 3.38502 11.7712 2.49706 10.8784 1.85932C9.98552 1.22158 8.86838 0.873191 7.71583 0.873067ZM2.81583 6.12307C3.00514 6.93211 3.45218 7.67779 4.10531 8.27394C4.75843 8.87009 5.59099 9.2924 6.50679 9.49207C7.42259 9.69174 8.38427 9.66062 9.28072 9.40231C10.1772 9.14401 10.9718 8.66905 11.5728 8.03232C11.6138 7.98588 11.665 7.94712 11.7234 7.91834C11.7818 7.88956 11.8462 7.87136 11.9128 7.8648C11.9795 7.85825 12.0469 7.86348 12.1111 7.88019C12.1754 7.8969 12.2352 7.92475 12.2869 7.96207C12.3386 7.9994 12.3812 8.04544 12.4122 8.09746C12.4431 8.14948 12.4618 8.20641 12.4671 8.26488C12.4724 8.32335 12.4643 8.38216 12.4431 8.43781C12.4219 8.49346 12.3881 8.54481 12.3438 8.58882C11.6116 9.36448 10.6402 9.93981 9.54516 10.2464C8.45009 10.5529 7.27743 10.5778 6.16665 10.3181C5.05588 10.0584 4.05373 9.52492 3.27942 8.78124C2.5051 8.03756 1.9912 7.11492 1.79883 6.12307H2.81583Z" fill="#656FAB"/>
</svg>
