<svg width="20" height="13" viewBox="0 0 20 13" fill="none" xmlns="http://www.w3.org/2000/svg">
<path d="M7.33929 6.125C7.33929 6.68309 7.60995 7.21833 8.09172 7.61296C8.57349 8.00759 9.22692 8.22929 9.90825 8.22929C10.5896 8.22929 11.243 8.00759 11.7248 7.61296C12.2065 7.21833 12.4772 6.68309 12.4772 6.125C12.4772 5.56691 12.2065 5.03167 11.7248 4.63704C11.243 4.24241 10.5896 4.02071 9.90825 4.02071C9.22692 4.02071 8.57349 4.24241 8.09172 4.63704C7.60995 5.03167 7.33929 5.56691 7.33929 6.125ZM19.8675 5.64026C17.6931 1.88823 14.4062 0 9.99999 0C5.59148 0 2.30689 1.88823 0.132451 5.64214C0.0452335 5.79342 0 5.95864 0 6.12594C0 6.29324 0.0452335 6.45846 0.132451 6.60974C2.30689 10.3618 5.59378 12.25 9.99999 12.25C14.4085 12.25 17.6931 10.3618 19.8675 6.60786C20.0442 6.30349 20.0442 5.95027 19.8675 5.64026ZM9.90825 9.43175C7.67876 9.43175 5.87132 7.95123 5.87132 6.125C5.87132 4.29877 7.67876 2.81825 9.90825 2.81825C12.1377 2.81825 13.9452 4.29877 13.9452 6.125C13.9452 7.95123 12.1377 9.43175 9.90825 9.43175Z" fill="#AAAAAA"/>
</svg>
