<svg width="15" height="15" viewBox="0 0 15 15" fill="none" xmlns="http://www.w3.org/2000/svg">
<path d="M7.5 0C4.91531 0 2.8125 1.66823 2.8125 3.71875V5.95H1.875C1.37772 5.95 0.900805 6.10672 0.549175 6.38568C0.197544 6.66464 0 7.04299 0 7.4375V13.3875C0 13.782 0.197544 14.1604 0.549175 14.4393C0.900805 14.7183 1.37772 14.875 1.875 14.875H13.125C13.6223 14.875 14.0992 14.7183 14.4508 14.4393C14.8025 14.1604 15 13.782 15 13.3875V7.4375C15 7.04299 14.8025 6.66464 14.4508 6.38568C14.0992 6.10672 13.6223 5.95 13.125 5.95H12.1875V3.71875C12.1875 1.66823 10.0847 0 7.5 0ZM4.6875 3.71875C4.6875 2.48859 5.94938 1.4875 7.5 1.4875C9.05062 1.4875 10.3125 2.48859 10.3125 3.71875V5.95H4.6875V3.71875ZM8.4375 11.694V13.3875H6.5625V11.694C6.23474 11.5451 5.97155 11.3209 5.80765 11.0509C5.64375 10.7809 5.58683 10.4779 5.64439 10.1818C5.70195 9.88562 5.8713 9.61027 6.13009 9.39202C6.38889 9.17377 6.72498 9.02287 7.09406 8.95921C7.3682 8.91112 7.65246 8.91247 7.92586 8.96314C8.19925 9.01382 8.45483 9.11253 8.67374 9.25201C8.89264 9.39148 9.06929 9.56816 9.19066 9.76901C9.31203 9.96986 9.37503 10.1898 9.375 10.4125C9.37446 10.6726 9.28752 10.928 9.12293 11.153C8.95835 11.378 8.72193 11.5646 8.4375 11.694Z" fill="#656FAB"/>
</svg>
